<?xml version="1.0" encoding="utf-8"?>
<?xml-stylesheet type="text/xsl" href="rss1.xsl"?>
<rss version="2.0" xmlns:atom="http://www.w3.org/2005/Atom" xmlns:content="http://purl.org/rss/1.0/modules/content/" xmlns:dc="http://purl.org/dc/elements/1.1/" xmlns:media="http://search.yahoo.com/mrss/">
<channel>
 <title>Getty</title>
 <link>http://www.gettyimg.com/</link>
 <atom:link href="http://www.gettyimg.com/" rel="self" type="application/rss+xml" />

 
                <item>
                <title><![CDATA[【PRORES HD】Björk ft. ROSALÍA - Oral (ProRes 1080)]]></title>
                <link><![CDATA[https://sharemania.us/threads/bj%C3%B6rk-ft-rosal%C3%8Da-oral-prores-1080.232618/]]></link>
                <description><![CDATA[<article>
<blockquote class="messageText SelectQuoteContainer ugc baseHtml">
<div style="text-align: center"><img src="https://i.imgur.com/SvjbIBE.gif" class="bbCodeImage LbImage" alt="[​IMG]" data-url="https://i.imgur.com/SvjbIBE.gif" style=""><br>
​</div>
<div class="ToggleTriggerAnchor bbCodeSpoilerContainer">
<button type="button" class="button bbCodeSpoilerButton ToggleTrigger Tooltip JsOnly" data-target="> .SpoilerTarget"><span>Spoiler: <span class="SpoilerTitle">ProRes</span></span></button>
<div class="SpoilerTarget bbCodeSpoilerText">
<div class="bbCodeBlock bbCodeCode">
<div class="type">Code:</div>
<pre>Format                                   : MPEG-4
Format profile                           : QuickTime
Codec ID                                 : qt   2005.03 (qt  )
File size                                : 4.00 GiB
Duration                                 : 3 min 54 s
Overall bit rate mode                    : Variable
Overall bit rate                         : 147 Mb/s
Encoded date                             : UTC 2023-11-18 00:37:35
Tagged date                              : UTC 2023-11-18 00:37:35
Writing library                          : Apple QuickTime
IsTruncated                              : Yes

Video
ID                                       : 1
Format                                   : ProRes
Format version                           : Version 0
Format profile                           : 422 HQ
Codec ID                                 : apch
Duration                                 : 3 min 54 s
Bit rate mode                            : Variable
Bit rate                                 : 185 Mb/s
Width                                    : 1 680 pixels
Height                                   : 1 080 pixels
Display aspect ratio                     : 16:10
Frame rate mode                          : Constant
Frame rate                               : 25.000 FPS
Color space                              : YUV
Chroma subsampling                       : 4:2:2
Scan type                                : Progressive
Bits/(Pixel*Frame)                       : 4.074
Stream size                              : 5.04 GiB
Writing library                          : adb0
Language                                 : English
Encoded date                             : UTC 2023-11-18 00:37:35
Tagged date                              : UTC 2023-11-18 00:37:35
Color primaries                          : BT.709
Transfer characteristics                 : BT.709
Matrix coefficients                      : BT.709

Audio
ID                                       : 2
Format                                   : PCM
Format settings                          : Little / Signed
Codec ID                                 : sowt
Duration                                 : 3 min 54 s
Bit rate mode                            : Constant
Bit rate                                 : 1 536 kb/s
Channel(s)                               : 2 channels
Channel layout                           : L R
Sampling rate                            : 48.0 kHz
Bit depth                                : 16 bits
Stream size                              : 42.9 MiB (1%)
Language                                 : English
Encoded date                             : UTC 2023-11-18 00:37:35
Tagged date                              : UTC 2023-11-18 00:37:35

Other
ID                                       : 3
Type                                     : Time code
Format                                   : QuickTime TC
Duration                                 : 3 min 54 s
Frame rate                               : 25.000 FPS
Language                                 : English
Encoded date                             : UTC 2023-11-18 00:37:35
Tagged date                              : UTC 2023-11-18 00:37:35</pre>
</div><div style="text-align: center">​</div></div>
</div><div style="text-align: center"><br>
<div class="bbCodeBlock bbCodeVfcHH HiddenContent">
<div class="attribution type">Hidden Content:</div>
<blockquote>You must reply before you can see the hidden data contained here.</blockquote>
</div></div>
<div class="messageTextEndMarker">&nbsp;</div>
</blockquote>
</article>]]></description>
                <author><![CDATA[fstambuk]]></author>
                </item>

                
                <item>
                <title><![CDATA[【Albums (lossless)】FLAC - TWICE - The Remixes (FLAC 24bits/48kHz)]]></title>
                <link><![CDATA[https://sharemania.us/threads/twice-the-remixes-flac-24bits-48khz.232616/]]></link>
                <description><![CDATA[<article>
<blockquote class="messageText SelectQuoteContainer ugc baseHtml">
thanks
<div class="messageTextEndMarker">&nbsp;</div>
</blockquote>
</article>]]></description>
                <author><![CDATA[Eric Lyn]]></author>
                </item>

                
                <item>
                <title><![CDATA[【Albums (lossless)】FLAC - Dreamcatcher - The 9th Mini Album - «Villains» [FLAC 24Bit/96kHz]]]></title>
                <link><![CDATA[https://sharemania.us/threads/dreamcatcher-the-9th-mini-album-%C2%ABvillains%C2%BB-flac-24bit-96khz.232617/]]></link>
                <description><![CDATA[<article>
<blockquote class="messageText SelectQuoteContainer ugc baseHtml">
<img src="https://images2.imgbox.com/79/12/ZnX5sPi0_o.jpg" class="bbCodeImage LbImage" alt="[​IMG]" data-url="https://images2.imgbox.com/79/12/ZnX5sPi0_o.jpg" style=""><br>
<br>
<i><b>The Remixes</b></i> (stylized in all-caps) is the first English remix album by <a href="https://kpop.fandom.com/wiki/TWICE" target="_blank" class="externalLink" rel="nofollow">TWICE</a>. It was released on November 22, 2023 with "Alcohol-Free (English ver.)" serving as the album's title track.<a href="https://kpop.fandom.com/wiki/The_Remixes#cite_note-1" target="_blank" class="externalLink" rel="nofollow">[1]</a><br>
<br>
<span style="font-size: 18px"><b>Track list</b></span><br>
<ol>
<li>"<a href="https://kpop.fandom.com/wiki/Moonlight_Sunrise_(Jonas_Blue_Remix)" target="_blank" class="externalLink" rel="nofollow">Moonlight Sunrise (Jonas Blue Remix)</a>" - 2:47</li>
<li>"The Feels (Ian Asher Remix)" - 2:51</li>
<li>"Set Me Free (Carneyval Remix)" - 2:57</li>
<li>"Alcohol Free (English ver.)" - 3:30</li>
<li>"Cry For Me (English ver.)" - 3:24</li>
<li>"I Can't Stop Me" (feat. Boys Like Girls) - 3:26</li>
<li>"More &amp; More (Lee Hae Sol Sped Up Remix)" - 2:25</li>
</ol>
<div class="bbCodeBlock bbCodeVfcHH HiddenContent">
<div class="attribution type">Hidden Content:</div>
<blockquote>You must reply before you can see the hidden data contained here.</blockquote>
</div>
<div class="messageTextEndMarker">&nbsp;</div>
</blockquote>
</article>]]></description>
                <author><![CDATA[WithLoveSNSD]]></author>
                </item>

                </channel></rss>